<svg width="37" height="37" viewBox="0 0 37 37" fill="none" xmlns="http://www.w3.org/2000/svg">
<path d="M19.8405 0C29.2782 0 37 7.72177 37 17.1595V19.8405C37 29.2782 29.2782 37 19.8405 37H17.1595C7.72177 37 0 29.2782 0 19.8405V17.1595C0 7.72177 7.72177 0 17.1595 0H19.8405ZM18.8373 9.29959L18.5986 9.29929C16.6106 9.29929 14.6226 9.365 14.6226 9.365C11.7189 9.365 9.365 11.7189 9.365 14.6226C9.365 14.6226 9.30465 16.3296 9.29962 18.1619L9.29929 18.4014C9.29929 20.4529 9.365 22.5746 9.365 22.5746C9.365 25.4782 11.7189 27.8322 14.6226 27.8322C14.6226 27.8322 16.4813 27.8979 18.4014 27.8979C20.4529 27.8979 22.6403 27.8322 22.6403 27.8322C25.544 27.8322 27.8322 25.544 27.8322 22.6403C27.8322 22.6403 27.8979 20.5426 27.8979 18.5329L27.8967 18.0613C27.8878 16.2582 27.8321 14.5568 27.8321 14.5568C27.8321 11.6531 25.544 9.365 22.6403 9.365C22.6403 9.365 20.7476 9.30444 18.8373 9.29959ZM18.5986 10.9731C20.2288 10.9731 22.3189 11.027 22.3189 11.027C24.7 11.027 26.1701 12.4971 26.1701 14.8782C26.1701 14.8782 26.224 16.9326 26.224 18.5446C26.224 20.1925 26.1701 22.3189 26.1701 22.3189C26.1701 24.6999 24.7 26.17 22.3189 26.17C22.3189 26.17 20.4705 26.2153 18.8667 26.2229L18.4369 26.2239C16.8624 26.2239 14.9439 26.17 14.9439 26.17C12.5629 26.17 11.0271 24.6341 11.0271 22.2532C11.0271 22.2532 10.9732 20.1191 10.9732 18.4369C10.9732 16.8623 11.0271 14.8782 11.0271 14.8782C11.0271 12.4971 12.563 11.027 14.9439 11.027C14.9439 11.027 16.9684 10.9731 18.5986 10.9731ZM18.5985 13.8349C15.9677 13.8349 13.8349 15.9676 13.8349 18.5985C13.8349 21.2294 15.9677 23.3621 18.5985 23.3621C21.2294 23.3621 23.3621 21.2294 23.3621 18.5985C23.3621 15.9676 21.2294 13.8349 18.5985 13.8349ZM18.5985 15.4987C20.3105 15.4987 21.6983 16.8865 21.6983 18.5985C21.6983 20.3105 20.3105 21.6983 18.5985 21.6983C16.8866 21.6983 15.4988 20.3105 15.4988 18.5985C15.4988 16.8865 16.8866 15.4987 18.5985 15.4987ZM23.5901 12.513C22.9544 12.513 22.4391 13.0309 22.4391 13.6697C22.4391 14.3085 22.9544 14.8264 23.5901 14.8264C24.2257 14.8264 24.7411 14.3085 24.7411 13.6697C24.7411 13.0308 24.2257 12.513 23.5901 12.513Z" fill="white"/>
</svg>
