<svg width="37" height="37" viewBox="0 0 37 37" fill="none" xmlns="http://www.w3.org/2000/svg">
<path d="M18.5 0C8.28164 0 0 8.28164 0 18.5C0 28.7184 8.28164 37 18.5 37C28.7184 37 37 28.7184 37 18.5C37 8.28164 28.7184 0 18.5 0ZM13.3258 26.2396H9.71973V14.6988H13.3258V26.2396ZM11.4252 13.2535H11.3963C10.0883 13.2535 9.24277 12.3719 9.24277 11.2518C9.24277 10.11 10.1172 9.25 11.4469 9.25C12.7766 9.25 13.5932 10.11 13.6221 11.2518C13.6293 12.3646 12.7838 13.2535 11.4252 13.2535ZM27.75 26.2396H23.6598V20.2705C23.6598 18.7096 23.0238 17.64 21.6146 17.64C20.5379 17.64 19.9381 18.3627 19.6635 19.0564C19.5623 19.3021 19.5768 19.649 19.5768 20.0031V26.2396H15.5227C15.5227 26.2396 15.5732 15.66 15.5227 14.6988H19.5768V16.5127C19.8152 15.7178 21.1088 14.5904 23.1756 14.5904C25.741 14.5904 27.75 16.2525 27.75 19.8225V26.2396Z" fill="white"/>
</svg>
